<mxfile host="app.diagrams.net" agent="Mozilla/5.0 (Windows NT 10.0; Win64; x64) AppleWebKit/537.36 (KHTML, like Gecko) Chrome/132.0.0.0 Safari/537.36" version="26.0.11">
  <diagram name="Page-1" id="RLeuE8vn4u9Mi2-s3ep9">
    <mxGraphModel dx="2284" dy="746" grid="1" gridSize="10" guides="1" tooltips="1" connect="1" arrows="1" fold="1" page="1" pageScale="1" pageWidth="850" pageHeight="1100" math="0" shadow="0">
      <root>
        <mxCell id="0" />
        <mxCell id="1" parent="0" />
        <mxCell id="2w4-U4HlUdrcMGj6sdS8-37" value="" style="rounded=0;whiteSpace=wrap;html=1;" vertex="1" parent="1">
          <mxGeometry x="-40" y="120" width="1060" height="580" as="geometry" />
        </mxCell>
        <mxCell id="2w4-U4HlUdrcMGj6sdS8-29" value="" style="rounded=0;whiteSpace=wrap;html=1;fillColor=#e1d5e7;strokeColor=#9673a6;" vertex="1" parent="1">
          <mxGeometry x="785" y="220" width="150" height="400" as="geometry" />
        </mxCell>
        <mxCell id="2w4-U4HlUdrcMGj6sdS8-24" value="" style="rounded=0;whiteSpace=wrap;html=1;fillColor=#f8cecc;strokeColor=#b85450;" vertex="1" parent="1">
          <mxGeometry x="420" y="220" width="330" height="400" as="geometry" />
        </mxCell>
        <mxCell id="2w4-U4HlUdrcMGj6sdS8-23" value="" style="rounded=0;whiteSpace=wrap;html=1;fillColor=#d5e8d4;strokeColor=#82b366;" vertex="1" parent="1">
          <mxGeometry x="235" y="220" width="150" height="400" as="geometry" />
        </mxCell>
        <mxCell id="2w4-U4HlUdrcMGj6sdS8-21" value="" style="rounded=0;whiteSpace=wrap;html=1;fillColor=#dae8fc;strokeColor=#6c8ebf;" vertex="1" parent="1">
          <mxGeometry x="60" y="220" width="150" height="400" as="geometry" />
        </mxCell>
        <mxCell id="2w4-U4HlUdrcMGj6sdS8-8" style="edgeStyle=orthogonalEdgeStyle;rounded=0;orthogonalLoop=1;jettySize=auto;html=1;exitX=1;exitY=0.5;exitDx=0;exitDy=0;entryX=0;entryY=0.5;entryDx=0;entryDy=0;" edge="1" parent="1" source="2w4-U4HlUdrcMGj6sdS8-2" target="2w4-U4HlUdrcMGj6sdS8-3">
          <mxGeometry relative="1" as="geometry" />
        </mxCell>
        <mxCell id="2w4-U4HlUdrcMGj6sdS8-2" value="Соларни панели" style="rounded=0;whiteSpace=wrap;html=1;" vertex="1" parent="1">
          <mxGeometry x="70" y="340" width="120" height="60" as="geometry" />
        </mxCell>
        <mxCell id="2w4-U4HlUdrcMGj6sdS8-11" style="edgeStyle=orthogonalEdgeStyle;rounded=0;orthogonalLoop=1;jettySize=auto;html=1;exitX=0.25;exitY=1;exitDx=0;exitDy=0;entryX=0.25;entryY=0;entryDx=0;entryDy=0;" edge="1" parent="1" source="2w4-U4HlUdrcMGj6sdS8-3" target="2w4-U4HlUdrcMGj6sdS8-6">
          <mxGeometry relative="1" as="geometry" />
        </mxCell>
        <mxCell id="2w4-U4HlUdrcMGj6sdS8-13" style="edgeStyle=orthogonalEdgeStyle;rounded=0;orthogonalLoop=1;jettySize=auto;html=1;exitX=1;exitY=0.5;exitDx=0;exitDy=0;entryX=0;entryY=0.5;entryDx=0;entryDy=0;" edge="1" parent="1" source="2w4-U4HlUdrcMGj6sdS8-3" target="2w4-U4HlUdrcMGj6sdS8-4">
          <mxGeometry relative="1" as="geometry" />
        </mxCell>
        <mxCell id="2w4-U4HlUdrcMGj6sdS8-3" value="Конвертиране на напрежението&amp;nbsp;" style="rounded=1;whiteSpace=wrap;html=1;" vertex="1" parent="1">
          <mxGeometry x="250" y="340" width="120" height="60" as="geometry" />
        </mxCell>
        <mxCell id="2w4-U4HlUdrcMGj6sdS8-14" style="edgeStyle=orthogonalEdgeStyle;rounded=0;orthogonalLoop=1;jettySize=auto;html=1;exitX=1;exitY=0.25;exitDx=0;exitDy=0;entryX=0;entryY=0.5;entryDx=0;entryDy=0;" edge="1" parent="1" source="2w4-U4HlUdrcMGj6sdS8-4" target="2w4-U4HlUdrcMGj6sdS8-5">
          <mxGeometry relative="1" as="geometry" />
        </mxCell>
        <mxCell id="2w4-U4HlUdrcMGj6sdS8-15" style="edgeStyle=orthogonalEdgeStyle;rounded=0;orthogonalLoop=1;jettySize=auto;html=1;exitX=1;exitY=0.75;exitDx=0;exitDy=0;entryX=0;entryY=0.5;entryDx=0;entryDy=0;" edge="1" parent="1" source="2w4-U4HlUdrcMGj6sdS8-4" target="2w4-U4HlUdrcMGj6sdS8-7">
          <mxGeometry relative="1" as="geometry" />
        </mxCell>
        <mxCell id="2w4-U4HlUdrcMGj6sdS8-4" value="разпределител на&amp;nbsp;&lt;div&gt;напрежението&lt;/div&gt;" style="rounded=1;whiteSpace=wrap;html=1;" vertex="1" parent="1">
          <mxGeometry x="440" y="340" width="120" height="60" as="geometry" />
        </mxCell>
        <mxCell id="2w4-U4HlUdrcMGj6sdS8-34" style="edgeStyle=orthogonalEdgeStyle;rounded=0;orthogonalLoop=1;jettySize=auto;html=1;exitX=1;exitY=0.5;exitDx=0;exitDy=0;entryX=0;entryY=0.5;entryDx=0;entryDy=0;" edge="1" parent="1" source="2w4-U4HlUdrcMGj6sdS8-5" target="2w4-U4HlUdrcMGj6sdS8-30">
          <mxGeometry relative="1" as="geometry" />
        </mxCell>
        <mxCell id="2w4-U4HlUdrcMGj6sdS8-5" value="сензор и регулатор за ток" style="rounded=1;whiteSpace=wrap;html=1;" vertex="1" parent="1">
          <mxGeometry x="600" y="300" width="120" height="60" as="geometry" />
        </mxCell>
        <mxCell id="2w4-U4HlUdrcMGj6sdS8-12" style="edgeStyle=orthogonalEdgeStyle;rounded=0;orthogonalLoop=1;jettySize=auto;html=1;exitX=0.75;exitY=0;exitDx=0;exitDy=0;entryX=0.75;entryY=1;entryDx=0;entryDy=0;" edge="1" parent="1" source="2w4-U4HlUdrcMGj6sdS8-6" target="2w4-U4HlUdrcMGj6sdS8-3">
          <mxGeometry relative="1" as="geometry" />
        </mxCell>
        <mxCell id="2w4-U4HlUdrcMGj6sdS8-6" value="батерии" style="whiteSpace=wrap;html=1;aspect=fixed;" vertex="1" parent="1">
          <mxGeometry x="250" y="480" width="120" height="120" as="geometry" />
        </mxCell>
        <mxCell id="2w4-U4HlUdrcMGj6sdS8-35" style="edgeStyle=orthogonalEdgeStyle;rounded=0;orthogonalLoop=1;jettySize=auto;html=1;exitX=1;exitY=0.5;exitDx=0;exitDy=0;entryX=0;entryY=0.5;entryDx=0;entryDy=0;" edge="1" parent="1" source="2w4-U4HlUdrcMGj6sdS8-7" target="2w4-U4HlUdrcMGj6sdS8-31">
          <mxGeometry relative="1" as="geometry" />
        </mxCell>
        <mxCell id="2w4-U4HlUdrcMGj6sdS8-7" value="сензор и регулатор за ток" style="rounded=1;whiteSpace=wrap;html=1;" vertex="1" parent="1">
          <mxGeometry x="600" y="380" width="120" height="60" as="geometry" />
        </mxCell>
        <mxCell id="2w4-U4HlUdrcMGj6sdS8-25" value="Генериране на енергия" style="text;html=1;align=center;verticalAlign=middle;whiteSpace=wrap;rounded=0;" vertex="1" parent="1">
          <mxGeometry x="70" y="230" width="130" height="50" as="geometry" />
        </mxCell>
        <mxCell id="2w4-U4HlUdrcMGj6sdS8-26" value="Съхранение на енергия" style="text;html=1;align=center;verticalAlign=middle;whiteSpace=wrap;rounded=0;" vertex="1" parent="1">
          <mxGeometry x="245" y="230" width="130" height="50" as="geometry" />
        </mxCell>
        <mxCell id="2w4-U4HlUdrcMGj6sdS8-27" value="Разпределение и мониторинг" style="text;html=1;align=center;verticalAlign=middle;whiteSpace=wrap;rounded=0;" vertex="1" parent="1">
          <mxGeometry x="520" y="230" width="130" height="50" as="geometry" />
        </mxCell>
        <mxCell id="2w4-U4HlUdrcMGj6sdS8-30" value="товар" style="rounded=1;whiteSpace=wrap;html=1;" vertex="1" parent="1">
          <mxGeometry x="800" y="300" width="120" height="60" as="geometry" />
        </mxCell>
        <mxCell id="2w4-U4HlUdrcMGj6sdS8-31" value="товар" style="rounded=1;whiteSpace=wrap;html=1;" vertex="1" parent="1">
          <mxGeometry x="800" y="380" width="120" height="60" as="geometry" />
        </mxCell>
        <mxCell id="2w4-U4HlUdrcMGj6sdS8-36" value="Товар" style="text;html=1;align=center;verticalAlign=middle;whiteSpace=wrap;rounded=0;" vertex="1" parent="1">
          <mxGeometry x="795" y="230" width="130" height="50" as="geometry" />
        </mxCell>
      </root>
    </mxGraphModel>
  </diagram>
</mxfile>
